<svg width="24" height="24" viewBox="0 0 24 24" fill="none" xmlns="http://www.w3.org/2000/svg">
<path fill-rule="evenodd" clip-rule="evenodd" d="M21.94 8.55011L20.89 7.50011C20.3896 6.9941 19.7115 6.70346 19 6.69011H15V6.11011C15 4.59132 13.7688 3.36011 12.25 3.36011H4C3.58579 3.36011 3.25 3.69589 3.25 4.11011C3.25 4.52432 3.58579 4.86011 4 4.86011H12.22C12.9104 4.86011 13.47 5.41975 13.47 6.11011V12.4401C13.47 12.8543 13.8058 13.1901 14.22 13.1901C14.6342 13.1901 14.97 12.8543 14.97 12.4401V8.19011H18.97C19.3014 8.18879 19.6191 8.32237 19.85 8.56011L20.9 9.56011C21.0432 9.70857 21.1464 9.89092 21.2 10.0901H17C16.5858 10.0901 16.25 10.4259 16.25 10.8401C16.25 11.2543 16.5858 11.5901 17 11.5901H21.25V15.8401C21.2636 16.1802 21.138 16.5111 20.902 16.7565C20.6661 17.0018 20.3404 17.1404 20 17.1401H18.89C18.6439 15.9863 17.6247 15.1616 16.445 15.1616C15.2653 15.1616 14.2461 15.9863 14 17.1401H8.66C8.39085 15.9475 7.29272 15.129 6.07293 15.2118C4.85315 15.2945 3.87567 16.2539 3.77011 17.4719C3.66454 18.69 4.4624 19.8032 5.64975 20.0946C6.83711 20.386 8.05968 19.7686 8.53 18.6401H14.14C14.5298 19.5683 15.4383 20.1721 16.445 20.1721C17.4517 20.1721 18.3602 19.5683 18.75 18.6401H20C21.5188 18.6401 22.75 17.4089 22.75 15.8901V10.5001C22.7514 9.768 22.4597 9.06579 21.94 8.55011ZM6.22 18.4801C5.88428 18.4965 5.57256 18.3063 5.43351 18.0003C5.29446 17.6943 5.35624 17.3344 5.58939 17.0923C5.82254 16.8502 6.17983 16.7749 6.49087 16.9023C6.80191 17.0297 7.0037 17.334 7 17.6701C7.0003 18.106 6.65559 18.464 6.22 18.4801ZM15.6815 17.9716C15.8078 18.2792 16.1074 18.4801 16.44 18.4801C16.889 18.4801 17.2545 18.1191 17.26 17.6701C17.2641 17.3376 17.0669 17.0355 16.7608 16.9054C16.4547 16.7754 16.1004 16.843 15.8638 17.0767C15.6272 17.3104 15.5552 17.6639 15.6815 17.9716Z" fill="black"/>
<path d="M10.75 9.00011C10.7446 8.58815 10.412 8.25549 10 8.25011H2C1.58579 8.25011 1.25 8.58589 1.25 9.00011C1.25 9.41432 1.58579 9.75011 2 9.75011H10C10.412 9.74472 10.7446 9.41207 10.75 9.00011Z" fill="black"/>
<path d="M10 11.2501H5C4.58579 11.2501 4.25 11.5859 4.25 12.0001C4.25 12.4143 4.58579 12.7501 5 12.7501H10C10.4142 12.7501 10.75 12.4143 10.75 12.0001C10.75 11.5859 10.4142 11.2501 10 11.2501Z" fill="black"/>
</svg>
